<mxfile host="app.diagrams.net" agent="Mozilla/5.0 (Windows NT 10.0; Win64; x64) AppleWebKit/537.36 (KHTML, like Gecko) Chrome/137.0.0.0 Safari/537.36" version="27.1.4">
  <diagram name="Vista de Componentes de Alto Nivel" id="XgYhL_Q5aQ_7c3n0z8jG">
    <mxGraphModel dx="2377" dy="1372" grid="1" gridSize="10" guides="1" tooltips="1" connect="1" arrows="1" fold="1" page="1" pageScale="1" pageWidth="1169" pageHeight="827" math="0" shadow="0">
      <root>
        <mxCell id="0" />
        <mxCell id="1" parent="0" />
        <mxCell id="bJ7sigGb2fM7xMqMPN_4-60" value="CRM" style="html=1;whiteSpace=wrap;align=center;verticalAlign=top;fontSize=15;fontStyle=1" parent="1" vertex="1">
          <mxGeometry x="870" y="364" width="670" height="414" as="geometry" />
        </mxCell>
        <mxCell id="bJ7sigGb2fM7xMqMPN_4-32" value="Frontend" style="rounded=0;whiteSpace=wrap;html=1;align=center;verticalAlign=top;fontStyle=1;fontSize=15;" parent="1" vertex="1">
          <mxGeometry x="740" width="610" height="90" as="geometry" />
        </mxCell>
        <mxCell id="bJ7sigGb2fM7xMqMPN_4-30" value="Interfaz administrativa" style="shape=module;align=left;spacingLeft=20;align=center;verticalAlign=middle;whiteSpace=wrap;html=1;" parent="1" vertex="1">
          <mxGeometry x="1180" y="30" width="150" height="50" as="geometry" />
        </mxCell>
        <mxCell id="bJ7sigGb2fM7xMqMPN_4-40" value="API Datos" style="shape=module;align=left;spacingLeft=20;align=center;verticalAlign=middle;whiteSpace=wrap;html=1;fontStyle=1" parent="1" vertex="1">
          <mxGeometry x="989" y="248.7" width="109" height="50" as="geometry" />
        </mxCell>
        <mxCell id="bJ7sigGb2fM7xMqMPN_4-70" value="API Videos" style="shape=module;align=left;spacingLeft=20;align=center;verticalAlign=middle;whiteSpace=wrap;html=1;fontStyle=1" parent="1" vertex="1">
          <mxGeometry x="728" y="248.7" width="100" height="50" as="geometry" />
        </mxCell>
        <mxCell id="bJ7sigGb2fM7xMqMPN_4-72" value="Tumimeras -&amp;nbsp;&lt;i&gt;externo&lt;/i&gt;" style="html=1;whiteSpace=wrap;fillColor=#dae8fc;strokeColor=#6c8ebf;fontStyle=0" parent="1" vertex="1">
          <mxGeometry x="40" y="249" width="130" height="50" as="geometry" />
        </mxCell>
        <mxCell id="bJ7sigGb2fM7xMqMPN_4-79" value="Apertura de puertas" style="shape=module;align=left;spacingLeft=20;align=center;verticalAlign=top;whiteSpace=wrap;html=1;" parent="1" vertex="1">
          <mxGeometry x="1640" y="349.5" width="100" height="50" as="geometry" />
        </mxCell>
        <mxCell id="DKqnZgWaFf-IS6omjSuh-20" value="Autenticación y autorización" style="shape=module;align=center;spacingLeft=20;align=center;verticalAlign=middle;whiteSpace=wrap;html=1;" vertex="1" parent="1">
          <mxGeometry x="525" y="135" width="120" height="50" as="geometry" />
        </mxCell>
        <mxCell id="DKqnZgWaFf-IS6omjSuh-21" value="" style="rounded=0;orthogonalLoop=1;jettySize=auto;html=1;endArrow=halfCircle;endFill=0;endSize=6;strokeWidth=1;sketch=0;exitX=1;exitY=0.5;exitDx=0;exitDy=0;" edge="1" target="DKqnZgWaFf-IS6omjSuh-23" parent="1" source="DKqnZgWaFf-IS6omjSuh-20">
          <mxGeometry relative="1" as="geometry">
            <mxPoint x="650" y="95" as="sourcePoint" />
            <mxPoint x="620" y="99" as="targetPoint" />
          </mxGeometry>
        </mxCell>
        <mxCell id="DKqnZgWaFf-IS6omjSuh-22" value="" style="rounded=0;orthogonalLoop=1;jettySize=auto;html=1;endArrow=oval;endFill=0;sketch=0;sourcePerimeterSpacing=0;targetPerimeterSpacing=0;endSize=10;exitX=0.028;exitY=0.504;exitDx=0;exitDy=0;entryX=0.123;entryY=0.562;entryDx=0;entryDy=0;entryPerimeter=0;exitPerimeter=0;" edge="1" target="DKqnZgWaFf-IS6omjSuh-23" parent="1" source="DKqnZgWaFf-IS6omjSuh-34">
          <mxGeometry relative="1" as="geometry">
            <mxPoint x="610" y="95" as="sourcePoint" />
            <mxPoint x="624" y="95" as="targetPoint" />
          </mxGeometry>
        </mxCell>
        <mxCell id="DKqnZgWaFf-IS6omjSuh-38" value="IdAuth" style="edgeLabel;html=1;align=center;verticalAlign=middle;resizable=0;points=[];" vertex="1" connectable="0" parent="DKqnZgWaFf-IS6omjSuh-22">
          <mxGeometry x="0.2263" relative="1" as="geometry">
            <mxPoint x="-19" y="18" as="offset" />
          </mxGeometry>
        </mxCell>
        <mxCell id="DKqnZgWaFf-IS6omjSuh-23" value="" style="ellipse;whiteSpace=wrap;html=1;align=center;aspect=fixed;fillColor=none;strokeColor=none;resizable=0;perimeter=centerPerimeter;rotatable=0;allowArrows=0;points=[];outlineConnect=1;" vertex="1" parent="1">
          <mxGeometry x="690" y="155" width="10" height="10" as="geometry" />
        </mxCell>
        <mxCell id="DKqnZgWaFf-IS6omjSuh-34" value="Edge Gateway" style="shape=module;align=center;spacingLeft=20;align=center;verticalAlign=middle;whiteSpace=wrap;html=1;fontSize=19;fontStyle=1" vertex="1" parent="1">
          <mxGeometry x="728" y="135" width="622" height="50" as="geometry" />
        </mxCell>
        <mxCell id="DKqnZgWaFf-IS6omjSuh-35" value="" style="endArrow=classic;html=1;rounded=0;exitX=0.413;exitY=1.006;exitDx=0;exitDy=0;entryX=0.424;entryY=-0.009;entryDx=0;entryDy=0;entryPerimeter=0;dashed=1;exitPerimeter=0;" edge="1" parent="1" source="bJ7sigGb2fM7xMqMPN_4-32" target="DKqnZgWaFf-IS6omjSuh-34">
          <mxGeometry width="50" height="50" relative="1" as="geometry">
            <mxPoint x="1130" y="120" as="sourcePoint" />
            <mxPoint x="1180" y="70" as="targetPoint" />
          </mxGeometry>
        </mxCell>
        <mxCell id="DKqnZgWaFf-IS6omjSuh-42" value="" style="group" vertex="1" connectable="0" parent="1">
          <mxGeometry x="575" y="446.25" width="130" height="107.5" as="geometry" />
        </mxCell>
        <mxCell id="DKqnZgWaFf-IS6omjSuh-41" value="" style="shape=module;align=left;spacingLeft=20;align=center;verticalAlign=top;whiteSpace=wrap;html=1;" vertex="1" parent="DKqnZgWaFf-IS6omjSuh-42">
          <mxGeometry width="130" height="107.5" as="geometry" />
        </mxCell>
        <mxCell id="DKqnZgWaFf-IS6omjSuh-39" value="DB general" style="shape=cylinder3;whiteSpace=wrap;html=1;boundedLbl=1;backgroundOutline=1;size=15;fillColor=#f8cecc;strokeColor=#b85450;" vertex="1" parent="DKqnZgWaFf-IS6omjSuh-42">
          <mxGeometry x="47" y="13.629999999999999" width="50" height="80.25" as="geometry" />
        </mxCell>
        <mxCell id="DKqnZgWaFf-IS6omjSuh-43" value="" style="endArrow=classic;html=1;rounded=0;exitX=0.813;exitY=0.997;exitDx=0;exitDy=0;entryX=0.368;entryY=-0.005;entryDx=0;entryDy=0;dashed=1;entryPerimeter=0;exitPerimeter=0;" edge="1" parent="1" source="DKqnZgWaFf-IS6omjSuh-20" target="DKqnZgWaFf-IS6omjSuh-41">
          <mxGeometry width="50" height="50" relative="1" as="geometry">
            <mxPoint x="1010" y="120" as="sourcePoint" />
            <mxPoint x="1010" y="165" as="targetPoint" />
          </mxGeometry>
        </mxCell>
        <mxCell id="DKqnZgWaFf-IS6omjSuh-44" value="" style="endArrow=classic;html=1;rounded=0;exitX=0.095;exitY=1.02;exitDx=0;exitDy=0;entryX=0.587;entryY=-0.006;entryDx=0;entryDy=0;entryPerimeter=0;dashed=1;exitPerimeter=0;" edge="1" parent="1">
          <mxGeometry width="50" height="50" relative="1" as="geometry">
            <mxPoint x="770.0899999999999" y="186" as="sourcePoint" />
            <mxPoint x="769.7" y="248.39999999999998" as="targetPoint" />
          </mxGeometry>
        </mxCell>
        <mxCell id="DKqnZgWaFf-IS6omjSuh-45" value="" style="endArrow=classic;html=1;rounded=0;exitX=0.51;exitY=1.003;exitDx=0;exitDy=0;entryX=0.516;entryY=-0.007;entryDx=0;entryDy=0;entryPerimeter=0;dashed=1;exitPerimeter=0;" edge="1" parent="1">
          <mxGeometry width="50" height="50" relative="1" as="geometry">
            <mxPoint x="1031.22" y="185.15000000000003" as="sourcePoint" />
            <mxPoint x="1031.244" y="248.35000000000002" as="targetPoint" />
          </mxGeometry>
        </mxCell>
        <mxCell id="DKqnZgWaFf-IS6omjSuh-46" value="API Peticiones" style="shape=module;align=left;spacingLeft=20;align=center;verticalAlign=middle;whiteSpace=wrap;html=1;fontStyle=1" vertex="1" parent="1">
          <mxGeometry x="1230" y="248.64999999999998" width="110" height="50" as="geometry" />
        </mxCell>
        <mxCell id="DKqnZgWaFf-IS6omjSuh-48" value="" style="endArrow=classic;html=1;rounded=0;exitX=0.911;exitY=0.998;exitDx=0;exitDy=0;entryX=0.589;entryY=-0.006;entryDx=0;entryDy=0;entryPerimeter=0;dashed=1;exitPerimeter=0;" edge="1" parent="1">
          <mxGeometry width="50" height="50" relative="1" as="geometry">
            <mxPoint x="1273.642" y="184.89999999999998" as="sourcePoint" />
            <mxPoint x="1273.79" y="248.35000000000002" as="targetPoint" />
          </mxGeometry>
        </mxCell>
        <mxCell id="DKqnZgWaFf-IS6omjSuh-54" value="" style="ellipse;whiteSpace=wrap;html=1;align=center;aspect=fixed;fillColor=none;strokeColor=none;resizable=0;perimeter=centerPerimeter;rotatable=0;allowArrows=0;points=[];outlineConnect=1;" vertex="1" parent="1">
          <mxGeometry x="600" y="270" width="10" height="10" as="geometry" />
        </mxCell>
        <mxCell id="DKqnZgWaFf-IS6omjSuh-57" value="" style="rounded=0;orthogonalLoop=1;jettySize=auto;html=1;endArrow=halfCircle;endFill=0;endSize=6;strokeWidth=1;sketch=0;exitX=0.101;exitY=0.511;exitDx=0;exitDy=0;exitPerimeter=0;jumpStyle=arc;jumpSize=15;entryX=1.1;entryY=0.42;entryDx=0;entryDy=0;entryPerimeter=0;" edge="1" parent="1" source="bJ7sigGb2fM7xMqMPN_4-70" target="DKqnZgWaFf-IS6omjSuh-62">
          <mxGeometry relative="1" as="geometry">
            <mxPoint x="515" y="309.71" as="sourcePoint" />
            <mxPoint x="430" y="274" as="targetPoint" />
          </mxGeometry>
        </mxCell>
        <mxCell id="DKqnZgWaFf-IS6omjSuh-58" value="" style="rounded=0;orthogonalLoop=1;jettySize=auto;html=1;endArrow=oval;endFill=0;sketch=0;sourcePerimeterSpacing=0;targetPerimeterSpacing=0;endSize=10;exitX=1;exitY=0.5;exitDx=0;exitDy=0;entryX=0.22;entryY=0.54;entryDx=0;entryDy=0;entryPerimeter=0;" edge="1" parent="1" target="DKqnZgWaFf-IS6omjSuh-62" source="bJ7sigGb2fM7xMqMPN_4-72">
          <mxGeometry relative="1" as="geometry">
            <mxPoint x="673" y="320" as="sourcePoint" />
            <mxPoint x="420" y="275" as="targetPoint" />
          </mxGeometry>
        </mxCell>
        <mxCell id="DKqnZgWaFf-IS6omjSuh-59" value="StreamProvider" style="edgeLabel;html=1;align=center;verticalAlign=middle;resizable=0;points=[];" vertex="1" connectable="0" parent="DKqnZgWaFf-IS6omjSuh-58">
          <mxGeometry x="0.2263" relative="1" as="geometry">
            <mxPoint x="28" y="15" as="offset" />
          </mxGeometry>
        </mxCell>
        <mxCell id="DKqnZgWaFf-IS6omjSuh-60" value="" style="ellipse;whiteSpace=wrap;html=1;align=center;aspect=fixed;fillColor=none;strokeColor=none;resizable=0;perimeter=centerPerimeter;rotatable=0;allowArrows=0;points=[];outlineConnect=1;" vertex="1" parent="1">
          <mxGeometry x="565" y="315" width="10" height="10" as="geometry" />
        </mxCell>
        <mxCell id="DKqnZgWaFf-IS6omjSuh-62" value="" style="ellipse;whiteSpace=wrap;html=1;align=center;aspect=fixed;fillColor=none;strokeColor=none;resizable=0;perimeter=centerPerimeter;rotatable=0;allowArrows=0;points=[];outlineConnect=1;" vertex="1" parent="1">
          <mxGeometry x="230" y="270" width="10" height="10" as="geometry" />
        </mxCell>
        <mxCell id="DKqnZgWaFf-IS6omjSuh-64" value="Descarga y envío de videos" style="shape=module;align=left;spacingLeft=20;align=center;verticalAlign=middle;whiteSpace=wrap;html=1;" vertex="1" parent="1">
          <mxGeometry x="30" y="451" width="110" height="50" as="geometry" />
        </mxCell>
        <mxCell id="DKqnZgWaFf-IS6omjSuh-65" value="" style="rounded=0;orthogonalLoop=1;jettySize=auto;html=1;endArrow=halfCircle;endFill=0;endSize=6;strokeWidth=1;sketch=0;exitX=0.138;exitY=0.998;exitDx=0;exitDy=0;exitPerimeter=0;" edge="1" parent="1" target="DKqnZgWaFf-IS6omjSuh-68" source="bJ7sigGb2fM7xMqMPN_4-72">
          <mxGeometry relative="1" as="geometry">
            <mxPoint x="170" y="365" as="sourcePoint" />
            <mxPoint x="230" y="304" as="targetPoint" />
          </mxGeometry>
        </mxCell>
        <mxCell id="DKqnZgWaFf-IS6omjSuh-66" value="" style="rounded=0;orthogonalLoop=1;jettySize=auto;html=1;endArrow=oval;endFill=0;sketch=0;sourcePerimeterSpacing=0;targetPerimeterSpacing=0;endSize=10;exitX=0.25;exitY=0;exitDx=0;exitDy=0;entryX=0.123;entryY=0.562;entryDx=0;entryDy=0;entryPerimeter=0;" edge="1" parent="1" target="DKqnZgWaFf-IS6omjSuh-68" source="DKqnZgWaFf-IS6omjSuh-64">
          <mxGeometry relative="1" as="geometry">
            <mxPoint x="348" y="365" as="sourcePoint" />
            <mxPoint x="234" y="300" as="targetPoint" />
          </mxGeometry>
        </mxCell>
        <mxCell id="DKqnZgWaFf-IS6omjSuh-67" value="RawVideoProvider" style="edgeLabel;html=1;align=center;verticalAlign=middle;resizable=0;points=[];" vertex="1" connectable="0" parent="DKqnZgWaFf-IS6omjSuh-66">
          <mxGeometry x="0.2263" relative="1" as="geometry">
            <mxPoint y="-31" as="offset" />
          </mxGeometry>
        </mxCell>
        <mxCell id="DKqnZgWaFf-IS6omjSuh-68" value="" style="ellipse;whiteSpace=wrap;html=1;align=center;aspect=fixed;fillColor=none;strokeColor=none;resizable=0;perimeter=centerPerimeter;rotatable=0;allowArrows=0;points=[];outlineConnect=1;" vertex="1" parent="1">
          <mxGeometry x="53" y="419" width="10" height="10" as="geometry" />
        </mxCell>
        <mxCell id="DKqnZgWaFf-IS6omjSuh-69" value="" style="group" vertex="1" connectable="0" parent="1">
          <mxGeometry x="489" y="590" width="141" height="107.5" as="geometry" />
        </mxCell>
        <mxCell id="DKqnZgWaFf-IS6omjSuh-70" value="" style="shape=module;align=left;spacingLeft=20;align=center;verticalAlign=top;whiteSpace=wrap;html=1;" vertex="1" parent="DKqnZgWaFf-IS6omjSuh-69">
          <mxGeometry width="141" height="107.5" as="geometry" />
        </mxCell>
        <mxCell id="DKqnZgWaFf-IS6omjSuh-71" value="DB histórica de videos" style="shape=cylinder3;whiteSpace=wrap;html=1;boundedLbl=1;backgroundOutline=1;size=15;fillColor=#f8cecc;strokeColor=#b85450;" vertex="1" parent="DKqnZgWaFf-IS6omjSuh-69">
          <mxGeometry x="39" y="10.56" width="77.46" height="86.37" as="geometry" />
        </mxCell>
        <mxCell id="DKqnZgWaFf-IS6omjSuh-72" value="La Heladera" style="shape=module;align=left;spacingLeft=20;align=center;verticalAlign=middle;whiteSpace=wrap;html=1;" vertex="1" parent="1">
          <mxGeometry x="486" y="723" width="219" height="50" as="geometry" />
        </mxCell>
        <mxCell id="DKqnZgWaFf-IS6omjSuh-73" value="" style="endArrow=classic;html=1;rounded=0;dashed=1;exitX=0.325;exitY=-0.03;exitDx=0;exitDy=0;exitPerimeter=0;entryX=0.484;entryY=0.995;entryDx=0;entryDy=0;entryPerimeter=0;" edge="1" parent="1" source="DKqnZgWaFf-IS6omjSuh-72" target="DKqnZgWaFf-IS6omjSuh-70">
          <mxGeometry width="50" height="50" relative="1" as="geometry">
            <mxPoint x="1172" y="600" as="sourcePoint" />
            <mxPoint x="610" y="570" as="targetPoint" />
          </mxGeometry>
        </mxCell>
        <mxCell id="DKqnZgWaFf-IS6omjSuh-74" value="" style="endArrow=classic;html=1;rounded=0;exitX=0.75;exitY=0;exitDx=0;exitDy=0;entryX=0.574;entryY=1.006;entryDx=0;entryDy=0;dashed=1;entryPerimeter=0;" edge="1" parent="1" source="DKqnZgWaFf-IS6omjSuh-72" target="DKqnZgWaFf-IS6omjSuh-41">
          <mxGeometry width="50" height="50" relative="1" as="geometry">
            <mxPoint x="1162" y="590" as="sourcePoint" />
            <mxPoint x="1162" y="646" as="targetPoint" />
          </mxGeometry>
        </mxCell>
        <mxCell id="DKqnZgWaFf-IS6omjSuh-75" value="" style="rounded=0;orthogonalLoop=1;jettySize=auto;html=1;endArrow=halfCircle;endFill=0;endSize=6;strokeWidth=1;sketch=0;exitX=0.858;exitY=-0.003;exitDx=0;exitDy=0;exitPerimeter=0;" edge="1" parent="1" target="DKqnZgWaFf-IS6omjSuh-78" source="DKqnZgWaFf-IS6omjSuh-64">
          <mxGeometry relative="1" as="geometry">
            <mxPoint x="314.3799999999999" y="452" as="sourcePoint" />
            <mxPoint x="287" y="308.6" as="targetPoint" />
          </mxGeometry>
        </mxCell>
        <mxCell id="DKqnZgWaFf-IS6omjSuh-76" value="" style="rounded=0;orthogonalLoop=1;jettySize=auto;html=1;endArrow=oval;endFill=0;sketch=0;sourcePerimeterSpacing=0;targetPerimeterSpacing=0;endSize=10;exitX=0.654;exitY=0.998;exitDx=0;exitDy=0;entryX=0.123;entryY=0.562;entryDx=0;entryDy=0;entryPerimeter=0;exitPerimeter=0;" edge="1" parent="1" target="DKqnZgWaFf-IS6omjSuh-78" source="bJ7sigGb2fM7xMqMPN_4-72">
          <mxGeometry relative="1" as="geometry">
            <mxPoint x="316.8399999999999" y="300.80000000000007" as="sourcePoint" />
            <mxPoint x="291" y="304.6" as="targetPoint" />
          </mxGeometry>
        </mxCell>
        <mxCell id="DKqnZgWaFf-IS6omjSuh-77" value="CamAuth" style="edgeLabel;html=1;align=center;verticalAlign=middle;resizable=0;points=[];" vertex="1" connectable="0" parent="DKqnZgWaFf-IS6omjSuh-76">
          <mxGeometry x="0.2263" relative="1" as="geometry">
            <mxPoint x="1" y="32" as="offset" />
          </mxGeometry>
        </mxCell>
        <mxCell id="DKqnZgWaFf-IS6omjSuh-78" value="" style="ellipse;whiteSpace=wrap;html=1;align=center;aspect=fixed;fillColor=none;strokeColor=none;resizable=0;perimeter=centerPerimeter;rotatable=0;allowArrows=0;points=[];outlineConnect=1;" vertex="1" parent="1">
          <mxGeometry x="120" y="329" width="10" height="10" as="geometry" />
        </mxCell>
        <mxCell id="DKqnZgWaFf-IS6omjSuh-79" value="Consultor de videos" style="shape=module;align=left;spacingLeft=20;align=center;verticalAlign=middle;whiteSpace=wrap;html=1;" vertex="1" parent="1">
          <mxGeometry x="435" y="330" width="130" height="50" as="geometry" />
        </mxCell>
        <mxCell id="DKqnZgWaFf-IS6omjSuh-80" value="" style="endArrow=classic;html=1;rounded=0;exitX=0.896;exitY=1.009;exitDx=0;exitDy=0;entryX=0;entryY=0.5;entryDx=10;entryDy=0;dashed=1;entryPerimeter=0;exitPerimeter=0;" edge="1" parent="1" source="DKqnZgWaFf-IS6omjSuh-79" target="DKqnZgWaFf-IS6omjSuh-41">
          <mxGeometry width="50" height="50" relative="1" as="geometry">
            <mxPoint x="630" y="625" as="sourcePoint" />
            <mxPoint x="630" y="600" as="targetPoint" />
            <Array as="points">
              <mxPoint x="550" y="500" />
            </Array>
          </mxGeometry>
        </mxCell>
        <mxCell id="DKqnZgWaFf-IS6omjSuh-81" value="" style="endArrow=classic;html=1;rounded=0;exitX=0.576;exitY=1.013;exitDx=0;exitDy=0;entryX=0.149;entryY=0;entryDx=0;entryDy=0;dashed=1;exitPerimeter=0;entryPerimeter=0;" edge="1" parent="1" source="DKqnZgWaFf-IS6omjSuh-79" target="DKqnZgWaFf-IS6omjSuh-70">
          <mxGeometry width="50" height="50" relative="1" as="geometry">
            <mxPoint x="510.00000000000006" y="383.7899999999999" as="sourcePoint" />
            <mxPoint x="510.0779999999998" y="589.9949999999999" as="targetPoint" />
          </mxGeometry>
        </mxCell>
        <mxCell id="DKqnZgWaFf-IS6omjSuh-82" value="" style="rounded=0;orthogonalLoop=1;jettySize=auto;html=1;endArrow=halfCircle;endFill=0;endSize=6;strokeWidth=1;sketch=0;exitX=0.5;exitY=1;exitDx=0;exitDy=0;" edge="1" target="DKqnZgWaFf-IS6omjSuh-84" parent="1" source="bJ7sigGb2fM7xMqMPN_4-70">
          <mxGeometry relative="1" as="geometry">
            <mxPoint x="750" y="355" as="sourcePoint" />
            <Array as="points">
              <mxPoint x="778" y="355" />
            </Array>
          </mxGeometry>
        </mxCell>
        <mxCell id="DKqnZgWaFf-IS6omjSuh-85" value="VideoProvider" style="edgeLabel;html=1;align=center;verticalAlign=middle;resizable=0;points=[];" vertex="1" connectable="0" parent="DKqnZgWaFf-IS6omjSuh-82">
          <mxGeometry x="0.5684" relative="1" as="geometry">
            <mxPoint x="-28" y="17" as="offset" />
          </mxGeometry>
        </mxCell>
        <mxCell id="DKqnZgWaFf-IS6omjSuh-83" value="" style="rounded=0;orthogonalLoop=1;jettySize=auto;html=1;endArrow=oval;endFill=0;sketch=0;sourcePerimeterSpacing=0;targetPerimeterSpacing=0;endSize=10;exitX=1;exitY=0.5;exitDx=0;exitDy=0;jumpStyle=arc;jumpSize=15;" edge="1" target="DKqnZgWaFf-IS6omjSuh-84" parent="1" source="DKqnZgWaFf-IS6omjSuh-79">
          <mxGeometry relative="1" as="geometry">
            <mxPoint x="710" y="355" as="sourcePoint" />
          </mxGeometry>
        </mxCell>
        <mxCell id="DKqnZgWaFf-IS6omjSuh-84" value="" style="ellipse;whiteSpace=wrap;html=1;align=center;aspect=fixed;fillColor=none;strokeColor=none;resizable=0;perimeter=centerPerimeter;rotatable=0;allowArrows=0;points=[];outlineConnect=1;" vertex="1" parent="1">
          <mxGeometry x="700" y="350" width="10" height="10" as="geometry" />
        </mxCell>
        <mxCell id="DKqnZgWaFf-IS6omjSuh-86" value="" style="endArrow=classic;html=1;rounded=0;entryX=0.073;entryY=0.867;entryDx=0;entryDy=0;entryPerimeter=0;jumpStyle=arc;jumpSize=15;exitX=0.923;exitY=0.99;exitDx=0;exitDy=0;exitPerimeter=0;dashed=1;" edge="1" parent="1" source="bJ7sigGb2fM7xMqMPN_4-72" target="DKqnZgWaFf-IS6omjSuh-41">
          <mxGeometry width="50" height="50" relative="1" as="geometry">
            <mxPoint x="180" y="540" as="sourcePoint" />
            <mxPoint x="400" y="510" as="targetPoint" />
            <Array as="points">
              <mxPoint x="160" y="540" />
            </Array>
          </mxGeometry>
        </mxCell>
        <mxCell id="DKqnZgWaFf-IS6omjSuh-87" value="Modelo de scoring" style="shape=module;align=left;spacingLeft=20;align=center;verticalAlign=middle;whiteSpace=wrap;html=1;" vertex="1" parent="1">
          <mxGeometry x="210" y="431" width="130" height="50" as="geometry" />
        </mxCell>
        <mxCell id="DKqnZgWaFf-IS6omjSuh-88" value="" style="rounded=0;orthogonalLoop=1;jettySize=auto;html=1;endArrow=halfCircle;endFill=0;endSize=6;strokeWidth=1;sketch=0;exitX=0.25;exitY=1;exitDx=0;exitDy=0;" edge="1" target="DKqnZgWaFf-IS6omjSuh-90" parent="1" source="DKqnZgWaFf-IS6omjSuh-79">
          <mxGeometry relative="1" as="geometry">
            <mxPoint x="400" y="615" as="sourcePoint" />
            <Array as="points">
              <mxPoint x="467" y="456" />
            </Array>
          </mxGeometry>
        </mxCell>
        <mxCell id="DKqnZgWaFf-IS6omjSuh-91" value="VideoScorer" style="edgeLabel;html=1;align=center;verticalAlign=middle;resizable=0;points=[];" vertex="1" connectable="0" parent="DKqnZgWaFf-IS6omjSuh-88">
          <mxGeometry x="0.5205" y="-1" relative="1" as="geometry">
            <mxPoint x="-32" y="19" as="offset" />
          </mxGeometry>
        </mxCell>
        <mxCell id="DKqnZgWaFf-IS6omjSuh-89" value="" style="rounded=0;orthogonalLoop=1;jettySize=auto;html=1;endArrow=oval;endFill=0;sketch=0;sourcePerimeterSpacing=0;targetPerimeterSpacing=0;endSize=10;exitX=1;exitY=0.5;exitDx=0;exitDy=0;" edge="1" target="DKqnZgWaFf-IS6omjSuh-90" parent="1" source="DKqnZgWaFf-IS6omjSuh-87">
          <mxGeometry relative="1" as="geometry">
            <mxPoint x="360" y="456" as="sourcePoint" />
          </mxGeometry>
        </mxCell>
        <mxCell id="DKqnZgWaFf-IS6omjSuh-90" value="" style="ellipse;whiteSpace=wrap;html=1;align=center;aspect=fixed;fillColor=none;strokeColor=none;resizable=0;perimeter=centerPerimeter;rotatable=0;allowArrows=0;points=[];outlineConnect=1;" vertex="1" parent="1">
          <mxGeometry x="400" y="451" width="10" height="10" as="geometry" />
        </mxCell>
        <mxCell id="DKqnZgWaFf-IS6omjSuh-92" value="Persistencia" style="shape=module;align=left;spacingLeft=20;align=center;verticalAlign=middle;whiteSpace=wrap;html=1;" vertex="1" parent="1">
          <mxGeometry x="734" y="481" width="94" height="49" as="geometry" />
        </mxCell>
        <mxCell id="DKqnZgWaFf-IS6omjSuh-93" value="" style="endArrow=classic;html=1;rounded=0;exitX=0.091;exitY=0.502;exitDx=0;exitDy=0;entryX=1.004;entryY=0.554;entryDx=0;entryDy=0;dashed=1;entryPerimeter=0;exitPerimeter=0;" edge="1" parent="1" source="DKqnZgWaFf-IS6omjSuh-92" target="DKqnZgWaFf-IS6omjSuh-41">
          <mxGeometry width="50" height="50" relative="1" as="geometry">
            <mxPoint x="700" y="759" as="sourcePoint" />
            <mxPoint x="700" y="590" as="targetPoint" />
          </mxGeometry>
        </mxCell>
        <mxCell id="DKqnZgWaFf-IS6omjSuh-95" value="" style="group" vertex="1" connectable="0" parent="1">
          <mxGeometry x="885" y="400" width="165" height="230" as="geometry" />
        </mxCell>
        <mxCell id="bJ7sigGb2fM7xMqMPN_4-45" value="Gestión de entidades" style="shape=module;align=left;spacingLeft=20;align=center;verticalAlign=top;whiteSpace=wrap;html=1;" parent="DKqnZgWaFf-IS6omjSuh-95" vertex="1">
          <mxGeometry width="165" height="230" as="geometry" />
        </mxCell>
        <mxCell id="bJ7sigGb2fM7xMqMPN_4-46" value="Gestión de usuarios" style="html=1;whiteSpace=wrap;" parent="DKqnZgWaFf-IS6omjSuh-95" vertex="1">
          <mxGeometry x="36" y="160" width="110" height="50" as="geometry" />
        </mxCell>
        <mxCell id="bJ7sigGb2fM7xMqMPN_4-47" value="Gestión de edificios" style="html=1;whiteSpace=wrap;" parent="DKqnZgWaFf-IS6omjSuh-95" vertex="1">
          <mxGeometry x="36" y="100" width="110" height="50" as="geometry" />
        </mxCell>
        <mxCell id="bJ7sigGb2fM7xMqMPN_4-48" value="Gestión de dispositivos" style="html=1;whiteSpace=wrap;" parent="DKqnZgWaFf-IS6omjSuh-95" vertex="1">
          <mxGeometry x="36" y="40" width="110" height="50" as="geometry" />
        </mxCell>
        <mxCell id="DKqnZgWaFf-IS6omjSuh-96" value="Aplicación web" style="shape=module;align=left;spacingLeft=20;align=center;verticalAlign=middle;whiteSpace=wrap;html=1;" vertex="1" parent="1">
          <mxGeometry x="970" y="30" width="150" height="50" as="geometry" />
        </mxCell>
        <mxCell id="DKqnZgWaFf-IS6omjSuh-97" value="Aplicación mobile" style="shape=module;align=left;spacingLeft=20;align=center;verticalAlign=middle;whiteSpace=wrap;html=1;" vertex="1" parent="1">
          <mxGeometry x="760" y="30" width="150" height="50" as="geometry" />
        </mxCell>
        <mxCell id="DKqnZgWaFf-IS6omjSuh-102" value="" style="rounded=0;orthogonalLoop=1;jettySize=auto;html=1;endArrow=halfCircle;endFill=0;endSize=6;strokeWidth=1;sketch=0;exitX=0.2;exitY=0.001;exitDx=0;exitDy=0;exitPerimeter=0;" edge="1" parent="1" target="DKqnZgWaFf-IS6omjSuh-105" source="bJ7sigGb2fM7xMqMPN_4-60">
          <mxGeometry relative="1" as="geometry">
            <mxPoint x="1003.75" y="400" as="sourcePoint" />
            <mxPoint x="1204.5" y="289.6" as="targetPoint" />
          </mxGeometry>
        </mxCell>
        <mxCell id="DKqnZgWaFf-IS6omjSuh-103" value="" style="rounded=0;orthogonalLoop=1;jettySize=auto;html=1;endArrow=oval;endFill=0;sketch=0;sourcePerimeterSpacing=0;targetPerimeterSpacing=0;endSize=10;exitX=0.138;exitY=1.01;exitDx=0;exitDy=0;entryX=0.123;entryY=0.562;entryDx=0;entryDy=0;entryPerimeter=0;exitPerimeter=0;" edge="1" parent="1" target="DKqnZgWaFf-IS6omjSuh-105" source="bJ7sigGb2fM7xMqMPN_4-40">
          <mxGeometry relative="1" as="geometry">
            <mxPoint x="1004.123" y="298.95000000000016" as="sourcePoint" />
            <mxPoint x="1208.5" y="285.6" as="targetPoint" />
          </mxGeometry>
        </mxCell>
        <mxCell id="DKqnZgWaFf-IS6omjSuh-104" value="CRUDcrm" style="edgeLabel;html=1;align=center;verticalAlign=middle;resizable=0;points=[];" vertex="1" connectable="0" parent="DKqnZgWaFf-IS6omjSuh-103">
          <mxGeometry x="0.2263" relative="1" as="geometry">
            <mxPoint y="29" as="offset" />
          </mxGeometry>
        </mxCell>
        <mxCell id="DKqnZgWaFf-IS6omjSuh-105" value="" style="ellipse;whiteSpace=wrap;html=1;align=center;aspect=fixed;fillColor=none;strokeColor=none;resizable=0;perimeter=centerPerimeter;rotatable=0;allowArrows=0;points=[];outlineConnect=1;" vertex="1" parent="1">
          <mxGeometry x="999" y="318" width="10" height="10" as="geometry" />
        </mxCell>
        <mxCell id="DKqnZgWaFf-IS6omjSuh-110" value="" style="endArrow=classic;html=1;rounded=0;exitX=0.582;exitY=0.007;exitDx=0;exitDy=0;entryX=0.573;entryY=1.013;entryDx=0;entryDy=0;entryPerimeter=0;dashed=1;exitPerimeter=0;" edge="1" parent="1" source="DKqnZgWaFf-IS6omjSuh-34" target="bJ7sigGb2fM7xMqMPN_4-32">
          <mxGeometry width="50" height="50" relative="1" as="geometry">
            <mxPoint x="990" y="110" as="sourcePoint" />
            <mxPoint x="991" y="154" as="targetPoint" />
          </mxGeometry>
        </mxCell>
        <mxCell id="DKqnZgWaFf-IS6omjSuh-111" value="" style="endArrow=classic;html=1;rounded=0;exitX=0.75;exitY=0;exitDx=0;exitDy=0;entryX=0.121;entryY=0.995;entryDx=0;entryDy=0;entryPerimeter=0;dashed=1;" edge="1" parent="1" source="bJ7sigGb2fM7xMqMPN_4-70" target="DKqnZgWaFf-IS6omjSuh-34">
          <mxGeometry width="50" height="50" relative="1" as="geometry">
            <mxPoint x="790.3899999999999" y="220" as="sourcePoint" />
            <mxPoint x="790" y="282.4" as="targetPoint" />
          </mxGeometry>
        </mxCell>
        <mxCell id="DKqnZgWaFf-IS6omjSuh-112" value="" style="endArrow=classic;html=1;rounded=0;exitX=0.709;exitY=-0.021;exitDx=0;exitDy=0;entryX=0.544;entryY=1.012;entryDx=0;entryDy=0;entryPerimeter=0;dashed=1;exitPerimeter=0;" edge="1" parent="1" source="bJ7sigGb2fM7xMqMPN_4-40" target="DKqnZgWaFf-IS6omjSuh-34">
          <mxGeometry width="50" height="50" relative="1" as="geometry">
            <mxPoint x="1060" y="220" as="sourcePoint" />
            <mxPoint x="1060.024" y="283.2" as="targetPoint" />
          </mxGeometry>
        </mxCell>
        <mxCell id="DKqnZgWaFf-IS6omjSuh-113" value="" style="endArrow=classic;html=1;rounded=0;exitX=0.703;exitY=-0.02;exitDx=0;exitDy=0;entryX=0.931;entryY=1.003;entryDx=0;entryDy=0;entryPerimeter=0;dashed=1;exitPerimeter=0;" edge="1" parent="1" source="DKqnZgWaFf-IS6omjSuh-46" target="DKqnZgWaFf-IS6omjSuh-34">
          <mxGeometry width="50" height="50" relative="1" as="geometry">
            <mxPoint x="1300" y="230" as="sourcePoint" />
            <mxPoint x="1300.024" y="293.2" as="targetPoint" />
          </mxGeometry>
        </mxCell>
        <mxCell id="DKqnZgWaFf-IS6omjSuh-114" value="" style="endArrow=classic;html=1;rounded=0;exitX=0;exitY=0.342;exitDx=0;exitDy=0;entryX=1;entryY=0.5;entryDx=0;entryDy=0;dashed=1;exitPerimeter=0;" edge="1" parent="1" source="bJ7sigGb2fM7xMqMPN_4-60" target="DKqnZgWaFf-IS6omjSuh-92">
          <mxGeometry width="50" height="50" relative="1" as="geometry">
            <mxPoint x="839" y="570" as="sourcePoint" />
            <mxPoint x="810" y="570" as="targetPoint" />
          </mxGeometry>
        </mxCell>
        <mxCell id="DKqnZgWaFf-IS6omjSuh-115" value="Registro de incidentes" style="shape=module;align=left;spacingLeft=20;align=center;verticalAlign=middle;whiteSpace=wrap;html=1;" vertex="1" parent="1">
          <mxGeometry x="1060" y="399.5" width="94" height="49" as="geometry" />
        </mxCell>
        <mxCell id="DKqnZgWaFf-IS6omjSuh-118" value="" style="ellipse;whiteSpace=wrap;html=1;align=center;aspect=fixed;fillColor=none;strokeColor=none;resizable=0;perimeter=centerPerimeter;rotatable=0;allowArrows=0;points=[];outlineConnect=1;" vertex="1" parent="1">
          <mxGeometry x="1078" y="329" width="10" height="10" as="geometry" />
        </mxCell>
        <mxCell id="DKqnZgWaFf-IS6omjSuh-119" value="" style="rounded=0;orthogonalLoop=1;jettySize=auto;html=1;endArrow=halfCircle;endFill=0;endSize=6;strokeWidth=1;sketch=0;exitX=0.862;exitY=1.026;exitDx=0;exitDy=0;exitPerimeter=0;" edge="1" parent="1" target="DKqnZgWaFf-IS6omjSuh-122" source="bJ7sigGb2fM7xMqMPN_4-40">
          <mxGeometry relative="1" as="geometry">
            <mxPoint x="1115" y="365" as="sourcePoint" />
            <mxPoint x="1315.5" y="290.6" as="targetPoint" />
          </mxGeometry>
        </mxCell>
        <mxCell id="DKqnZgWaFf-IS6omjSuh-120" value="" style="rounded=0;orthogonalLoop=1;jettySize=auto;html=1;endArrow=oval;endFill=0;sketch=0;sourcePerimeterSpacing=0;targetPerimeterSpacing=0;endSize=10;exitX=0.25;exitY=0;exitDx=0;exitDy=0;entryX=0.123;entryY=0.562;entryDx=0;entryDy=0;entryPerimeter=0;" edge="1" parent="1" target="DKqnZgWaFf-IS6omjSuh-122" source="DKqnZgWaFf-IS6omjSuh-115">
          <mxGeometry relative="1" as="geometry">
            <mxPoint x="1115" y="300" as="sourcePoint" />
            <mxPoint x="1319.5" y="286.6" as="targetPoint" />
          </mxGeometry>
        </mxCell>
        <mxCell id="DKqnZgWaFf-IS6omjSuh-121" value="Notificar-Escalar" style="edgeLabel;html=1;align=center;verticalAlign=middle;resizable=0;points=[];" vertex="1" connectable="0" parent="DKqnZgWaFf-IS6omjSuh-120">
          <mxGeometry x="0.2263" relative="1" as="geometry">
            <mxPoint y="-41" as="offset" />
          </mxGeometry>
        </mxCell>
        <mxCell id="DKqnZgWaFf-IS6omjSuh-122" value="" style="ellipse;whiteSpace=wrap;html=1;align=center;aspect=fixed;fillColor=none;strokeColor=none;resizable=0;perimeter=centerPerimeter;rotatable=0;allowArrows=0;points=[];outlineConnect=1;" vertex="1" parent="1">
          <mxGeometry x="1078" y="340" width="10" height="10" as="geometry" />
        </mxCell>
        <mxCell id="DKqnZgWaFf-IS6omjSuh-126" value="" style="group" vertex="1" connectable="0" parent="1">
          <mxGeometry x="1180" y="540" width="306" height="177" as="geometry" />
        </mxCell>
        <mxCell id="bJ7sigGb2fM7xMqMPN_4-53" value="Auditoría e Historial" style="shape=module;align=left;spacingLeft=20;align=center;verticalAlign=top;whiteSpace=wrap;html=1;" parent="DKqnZgWaFf-IS6omjSuh-126" vertex="1">
          <mxGeometry x="2" width="304" height="177" as="geometry" />
        </mxCell>
        <mxCell id="bJ7sigGb2fM7xMqMPN_4-54" value="Historial de accesos" style="html=1;whiteSpace=wrap;" parent="DKqnZgWaFf-IS6omjSuh-126" vertex="1">
          <mxGeometry x="45" y="40" width="110" height="50" as="geometry" />
        </mxCell>
        <mxCell id="bJ7sigGb2fM7xMqMPN_4-55" value="Registro de PINs (generación y uso)" style="html=1;whiteSpace=wrap;" parent="DKqnZgWaFf-IS6omjSuh-126" vertex="1">
          <mxGeometry x="172" y="40" width="110" height="50" as="geometry" />
        </mxCell>
        <mxCell id="bJ7sigGb2fM7xMqMPN_4-56" value="Historial de solicitudes a DB" style="html=1;whiteSpace=wrap;" parent="DKqnZgWaFf-IS6omjSuh-126" vertex="1">
          <mxGeometry x="45" y="107" width="110" height="50" as="geometry" />
        </mxCell>
        <mxCell id="bJ7sigGb2fM7xMqMPN_4-58" value="Logs" style="html=1;whiteSpace=wrap;" parent="DKqnZgWaFf-IS6omjSuh-126" vertex="1">
          <mxGeometry x="172" y="107" width="110" height="50" as="geometry" />
        </mxCell>
        <mxCell id="DKqnZgWaFf-IS6omjSuh-127" value="" style="rounded=0;orthogonalLoop=1;jettySize=auto;html=1;endArrow=halfCircle;endFill=0;endSize=6;strokeWidth=1;sketch=0;exitX=0.383;exitY=0.667;exitDx=0;exitDy=0;exitPerimeter=0;" edge="1" parent="1" target="DKqnZgWaFf-IS6omjSuh-130" source="DKqnZgWaFf-IS6omjSuh-132">
          <mxGeometry relative="1" as="geometry">
            <mxPoint x="1093" y="554" as="sourcePoint" />
            <mxPoint x="1293.5" y="479.6" as="targetPoint" />
          </mxGeometry>
        </mxCell>
        <mxCell id="DKqnZgWaFf-IS6omjSuh-128" value="" style="rounded=0;orthogonalLoop=1;jettySize=auto;html=1;endArrow=oval;endFill=0;sketch=0;sourcePerimeterSpacing=0;targetPerimeterSpacing=0;endSize=10;entryX=0.123;entryY=0.562;entryDx=0;entryDy=0;entryPerimeter=0;exitX=0.998;exitY=0.629;exitDx=0;exitDy=0;exitPerimeter=0;" edge="1" parent="1" target="DKqnZgWaFf-IS6omjSuh-130" source="bJ7sigGb2fM7xMqMPN_4-45">
          <mxGeometry relative="1" as="geometry">
            <mxPoint x="1093" y="468" as="sourcePoint" />
            <mxPoint x="1297.5" y="475.6" as="targetPoint" />
          </mxGeometry>
        </mxCell>
        <mxCell id="DKqnZgWaFf-IS6omjSuh-130" value="" style="ellipse;whiteSpace=wrap;html=1;align=center;aspect=fixed;fillColor=none;strokeColor=none;resizable=0;perimeter=centerPerimeter;rotatable=0;allowArrows=0;points=[];outlineConnect=1;" vertex="1" parent="1">
          <mxGeometry x="1088" y="539" width="10" height="10" as="geometry" />
        </mxCell>
        <mxCell id="DKqnZgWaFf-IS6omjSuh-131" value="" style="endArrow=none;html=1;rounded=0;entryX=0;entryY=0.75;entryDx=10;entryDy=0;entryPerimeter=0;exitX=0.587;exitY=0.602;exitDx=0;exitDy=0;exitPerimeter=0;" edge="1" parent="1" source="DKqnZgWaFf-IS6omjSuh-132" target="bJ7sigGb2fM7xMqMPN_4-53">
          <mxGeometry width="50" height="50" relative="1" as="geometry">
            <mxPoint x="1131" y="548" as="sourcePoint" />
            <mxPoint x="1170" y="660" as="targetPoint" />
            <Array as="points">
              <mxPoint x="1131" y="673" />
            </Array>
          </mxGeometry>
        </mxCell>
        <mxCell id="DKqnZgWaFf-IS6omjSuh-132" value="" style="shape=waypoint;sketch=0;fillStyle=solid;size=6;pointerEvents=1;points=[];fillColor=none;resizable=0;rotatable=0;perimeter=centerPerimeter;snapToPoint=1;" vertex="1" parent="1">
          <mxGeometry x="1121" y="534" width="20" height="20" as="geometry" />
        </mxCell>
        <mxCell id="DKqnZgWaFf-IS6omjSuh-133" value="" style="rounded=0;orthogonalLoop=1;jettySize=auto;html=1;endArrow=halfCircle;endFill=0;endSize=6;strokeWidth=1;sketch=0;exitX=0.467;exitY=0.15;exitDx=0;exitDy=0;exitPerimeter=0;" edge="1" parent="1" target="DKqnZgWaFf-IS6omjSuh-136" source="DKqnZgWaFf-IS6omjSuh-132">
          <mxGeometry relative="1" as="geometry">
            <mxPoint x="1131" y="530" as="sourcePoint" />
            <mxPoint x="1331.5" y="455.6" as="targetPoint" />
          </mxGeometry>
        </mxCell>
        <mxCell id="DKqnZgWaFf-IS6omjSuh-137" value="Registro" style="edgeLabel;html=1;align=center;verticalAlign=middle;resizable=0;points=[];" vertex="1" connectable="0" parent="DKqnZgWaFf-IS6omjSuh-133">
          <mxGeometry x="-0.0606" relative="1" as="geometry">
            <mxPoint x="-12" y="1" as="offset" />
          </mxGeometry>
        </mxCell>
        <mxCell id="DKqnZgWaFf-IS6omjSuh-134" value="" style="rounded=0;orthogonalLoop=1;jettySize=auto;html=1;endArrow=oval;endFill=0;sketch=0;sourcePerimeterSpacing=0;targetPerimeterSpacing=0;endSize=10;exitX=0.75;exitY=1;exitDx=0;exitDy=0;entryX=0.123;entryY=0.562;entryDx=0;entryDy=0;entryPerimeter=0;" edge="1" parent="1" target="DKqnZgWaFf-IS6omjSuh-136" source="DKqnZgWaFf-IS6omjSuh-115">
          <mxGeometry relative="1" as="geometry">
            <mxPoint x="1131" y="465" as="sourcePoint" />
            <mxPoint x="1335.5" y="451.6" as="targetPoint" />
          </mxGeometry>
        </mxCell>
        <mxCell id="DKqnZgWaFf-IS6omjSuh-136" value="" style="ellipse;whiteSpace=wrap;html=1;align=center;aspect=fixed;fillColor=none;strokeColor=none;resizable=0;perimeter=centerPerimeter;rotatable=0;allowArrows=0;points=[];outlineConnect=1;" vertex="1" parent="1">
          <mxGeometry x="1126" y="484" width="10" height="10" as="geometry" />
        </mxCell>
      </root>
    </mxGraphModel>
  </diagram>
</mxfile>
